<?xml version="1.0" encoding="UTF-8"?>
<svg id="cisco_talos_logo" xmlns="http://www.w3.org/2000/svg" viewBox="0 0 617.37 213.1">
  <defs>
    <style>
      .cisco-fill{fill:#8e8c8c;}
      .talos-fill{fill:#056eb6;}
    </style>
  </defs>
  <g id="Layer_1-2">
    <path class="cisco-fill" d="m92.7,1.73c-.3-.08-4.85-1.29-9.7-1.32-9.18-.06-14.75,4.86-14.8,12.24-.04,6.54,4.56,9.83,10.1,11.62.62.21,1.52.5,2.12.7,2.47.79,4.43,1.96,4.42,3.96-.02,2.24-2.31,3.67-7.26,3.64-4.36-.03-8.52-1.3-9.4-1.53l-.06,9.09c.49.11,5.44,1.12,10.75,1.15,7.63.05,16.37-3.22,16.44-13.14.03-4.81-2.88-9.26-9.34-11.36l-2.74-.89c-1.64-.53-4.56-1.39-4.54-3.79.01-1.9,2.19-3.22,6.19-3.19,3.45.02,7.63,1.21,7.78,1.26l.06-8.43h0Zm84.08,19.77c-.04,5.75-4.47,10.36-10.38,10.32-5.91-.04-10.27-4.72-10.23-10.46.04-5.73,4.46-10.35,10.37-10.31,5.91.04,10.28,4.72,10.24,10.45h0ZM166.6.99c-12.14-.08-20.92,9.02-20.99,20.3-.08,11.3,8.57,20.51,20.71,20.59,12.14.08,20.93-9.01,21.01-20.31.08-11.28-8.58-20.5-20.73-20.58h0ZM31.25,1.48C30.31,1.19,26.86.03,22.17,0,10.04-.08,1.08,8.5,1,20.29c-.09,12.72,9.69,20.52,20.89,20.59,4.45.03,7.85-1,9.1-1.34l.07-10.6c-.43.23-3.7,2.07-8.39,2.04-6.64-.05-10.89-4.75-10.85-10.62.04-6.05,4.54-10.5,10.99-10.46,4.77.03,7.96,1.95,8.36,2.17l.07-10.6h0Zm104,.71c-.94-.28-4.4-1.44-9.07-1.48-12.14-.08-21.1,8.5-21.18,20.29-.09,12.72,9.7,20.52,20.9,20.59,4.43.03,7.84-1,9.09-1.34l.07-10.6c-.44.23-3.71,2.07-8.4,2.04-6.63-.05-10.88-4.75-10.84-10.62.04-6.05,4.54-10.5,10.98-10.46,4.77.03,7.96,1.95,8.37,2.17l.07-10.6h0ZM54.64,40.41l-9.96-.07.27-39.49,9.96.07-.27,39.49h0Z"/>
    <path class="talos-fill" d="m478.12,96.94l-9.97,9.97c2.89,1,5.17,3.28,6.17,6.17l9.97-9.97c-1.92-2.19-3.98-4.25-6.17-6.17Z"/>
    <path class="talos-fill" d="m395.44,179.63l-9.97,9.97c1.92,2.19,3.98,4.25,6.17,6.17l9.97-9.97c-2.89-1-5.17-3.28-6.17-6.17Z"/>
    <path class="talos-fill" d="m394.88,173.11v-56.76c0-5.52,4.48-10,10-10h56.76l12.59-12.59c-10.97-8.22-24.59-13.09-39.35-13.09-36.27,0-65.68,29.41-65.68,65.68,0,14.76,4.87,28.38,13.09,39.35l12.59-12.59Z"/>
    <path class="talos-fill" d="m487.47,107l-12.59,12.59v56.76c0,5.52-4.48,10-10,10h-56.76l-12.59,12.59c10.97,8.22,24.59,13.09,39.35,13.09,36.27,0,65.68-29.41,65.68-65.68,0-14.76-4.87-28.38-13.09-39.35Z"/>
    <path class="talos-fill" d="m104.85,102.56c9.61-.91,19.25-8.76,19.25-22.53H0c0,14.66,10.94,22.61,21.13,22.62h0s23.56,0,23.95,0c3.3.03,5.95,2.7,5.94,6,0,2.93,0,84.04,0,84.04,0,5.62,1.67,10.06,5.1,13.57,2.83,2.9,6.48,4.83,11.15,5.9,1.03.24,5.78.95,5.78.95v-104.44c0-3.29,2.65-5.97,5.94-6,0,0,23.94,0,23.96,0h0c.62,0,1.25-.03,1.88-.09,0,0,0,0,0,0Z"/>
    <path class="talos-fill" d="m245.87,105.39c0-15.3-10.17-25.4-24.27-25.4h-78.77c0,14.7,10.98,22.67,21.2,22.67.32.02,35.71,0,49.93-.01,5.53,0,10.01,4.47,10.01,10l-.1,63.58c0,7.73-6.26,14-13.99,14h-48.41c-6.64-.04-10.84-2.78-12.46-8.81-1.3-4.85-.84-7.98,1.4-13.35,2.81-6.7,7.17-11.07,13.33-13.34,2.97-1.1,6.18-1.17,9.49-1.16,11.26.05,44.71,0,44.71,0v-22.3s-34.44.01-48.57,0c-6.93,0-13.3,1.84-18.95,5.48-9.71,6.26-16.94,15.06-21.48,27.03-2.92,7.69-3.49,14.4-1.76,24.29,1.01,5.74,3.07,10.31,6.32,13.97,5.57,6.29,12.98,9.7,22.03,10.14,1.9.09,53.47.08,55.72.08,1.74,0,3.45-.11,5.09-.33,5.23-.69,9.71-2.74,13.35-5.59,3.64,2.85,8.12,4.9,13.35,5.59,1.63.22,2.91.34,2.91.34,0,0-.07-105.76-.07-106.91Z"/>
    <path class="talos-fill" d="m375.22,212.3h0c0-7.39-2.78-13.08-6.83-16.92,0,0,0,0,0,0-.12-.12-.26-.24-.4-.36-3.73-3.35-8.47-5.18-13.12-5.38-.03,0-.05-.01-.05-.01l-58.33-.03c-3.31,0-6-2.69-6-6v-81.95c0-5.16-2.01-9.89-4.98-13.35-3.82-4.56-9.8-7.77-17.75-7.77h0v111.78c0,11.05,8.95,20,20,20h87.46Z"/>
    <path class="talos-fill" d="m617.3,161.26c-.02-4.33-.79-7.97-2.37-11.12-4.77-9.53-13.41-14.96-24.32-15.31-1.74-.06-42.2-.23-43.68-.23-4.96-.18-8.65-3.99-8.75-8.86l1.13-13c.51-5.53,5.4-10.01,10.92-10,10.26.01,45.34.04,45.68.01,10.15,0,21.04-7.87,21.19-22.38.02-.11-67.89-.3-67.89-.3-1.74,0-3.46.11-5.12.33-14.58,1.91-24.4,14.06-26.57,25.07-.39,1.97-2.27,24.41-2.35,25.36-.38,4.33.06,7.97,1.35,11.12,3.9,9.53,12.04,14.96,22.92,15.31.06,0,.13,0,.21,0,1.04.11,2.1.17,3.18.18.87.01,27.15.02,42.01.03,5.52,0,9.99,4.48,9.99,10v11.88c0,5.53-4.48,10.01-10.01,10-12.25-.01-59.26-.05-59.8-.01-10.22,0-21.2,7.98-21.2,22.69,0,0,81.13-.01,84.09-.01,1.74,0,3.45-.11,5.09-.33,14.41-1.91,23.11-14.06,24.27-25.07.21-1.97.03-24.41.03-25.36Z"/>
  </g>
</svg>