<?xml version="1.0" encoding="UTF-8" standalone="no"?>
<!-- Created with Inkscape (http://www.inkscape.org/) -->

<svg
   xmlns:dc="http://purl.org/dc/elements/1.1/"
   xmlns:cc="http://creativecommons.org/ns#"
   xmlns:rdf="http://www.w3.org/1999/02/22-rdf-syntax-ns#"
   xmlns:svg="http://www.w3.org/2000/svg"
   xmlns="http://www.w3.org/2000/svg"
   xmlns:sodipodi="http://sodipodi.sourceforge.net/DTD/sodipodi-0.dtd"
   xmlns:inkscape="http://www.inkscape.org/namespaces/inkscape"
   version="1.1"
   id="svg2"
   xml:space="preserve"
   width="677.36304"
   height="329.84961"
   viewBox="0 0 677.36302 329.84961"
   sodipodi:docname="Volkis_Logo_landscape.svg"
   inkscape:version="0.92.4 (5da689c313, 2019-01-14)"><metadata
     id="metadata8"><rdf:RDF><cc:Work
         rdf:about=""><dc:format>image/svg+xml</dc:format><dc:type
           rdf:resource="http://purl.org/dc/dcmitype/StillImage" /><dc:title></dc:title></cc:Work></rdf:RDF></metadata><defs
     id="defs6"><clipPath
       clipPathUnits="userSpaceOnUse"
       id="clipPath22"><path
         d="M 0,595.276 H 841.89 V 0 H 0 Z"
         id="path20"
         inkscape:connector-curvature="0" /></clipPath></defs><sodipodi:namedview
     pagecolor="#ffffff"
     bordercolor="#666666"
     borderopacity="1"
     objecttolerance="10"
     gridtolerance="10"
     guidetolerance="10"
     inkscape:pageopacity="0"
     inkscape:pageshadow="2"
     inkscape:window-width="2414"
     inkscape:window-height="958"
     id="namedview4"
     showgrid="false"
     fit-margin-top="80"
     fit-margin-left="80"
     fit-margin-right="80"
     fit-margin-bottom="80"
     units="px"
     inkscape:zoom="0.84100751"
     inkscape:cx="273.07142"
     inkscape:cy="165.62015"
     inkscape:window-x="0"
     inkscape:window-y="0"
     inkscape:window-maximized="0"
     inkscape:current-layer="g10" /><g
     id="g10"
     inkscape:groupmode="layer"
     inkscape:label="Volkis_Logo_landscape"
     transform="matrix(1.3333333,0,0,-1.3333333,-221.23573,580.27105)"><g
       id="g12"
       transform="translate(268.3198,305.9997)"><path
         d="M 0,0 -18.431,-49.766 -36.704,0 h -5.689 l 21.156,-56.738 h 5.291 L 5.611,0 Z"
         style="fill:#00243a;fill-opacity:1;fill-rule:nonzero;stroke:none"
         id="path14"
         inkscape:connector-curvature="0" /></g><g
       id="g16"><g
         id="g18"
         clip-path="url(#clipPath22)"><g
           id="g24"
           transform="translate(277.7759,277.6311)"><path
             d="m 0,0 c 0,4.325 0.723,8.305 2.164,11.942 1.442,3.631 3.447,6.771 6.013,9.415 2.563,2.646 5.647,4.713 9.256,6.21 3.603,1.497 7.572,2.245 11.9,2.245 4.325,0 8.294,-0.748 11.9,-2.245 3.609,-1.497 6.693,-3.564 9.256,-6.21 2.566,-2.644 4.571,-5.784 6.013,-9.415 C 57.943,8.305 58.666,4.325 58.666,0 c 0,-4.328 -0.723,-8.323 -2.164,-11.98 -1.442,-3.662 -3.447,-6.814 -6.013,-9.457 -2.563,-2.647 -5.647,-4.705 -9.256,-6.172 -3.606,-1.468 -7.575,-2.206 -11.9,-2.206 -4.328,0 -8.297,0.738 -11.9,2.206 -3.609,1.467 -6.693,3.525 -9.256,6.172 -2.566,2.643 -4.571,5.795 -6.013,9.457 C 0.723,-8.323 0,-4.328 0,0 m 5.291,0 c 0,-3.527 0.56,-6.812 1.684,-9.858 1.121,-3.042 2.722,-5.69 4.805,-7.935 2.083,-2.245 4.61,-4.007 7.574,-5.29 2.968,-1.284 6.292,-1.921 9.979,-1.921 3.687,0 7.011,0.637 9.975,1.921 2.968,1.283 5.492,3.045 7.575,5.29 2.083,2.245 3.69,4.893 4.811,7.935 1.121,3.046 1.681,6.331 1.681,9.858 0,3.525 -0.56,6.813 -1.681,9.855 -1.121,3.046 -2.728,5.69 -4.811,7.934 -2.083,2.245 -4.607,4.011 -7.575,5.291 -2.964,1.283 -6.288,1.921 -9.975,1.921 -3.687,0 -7.011,-0.638 -9.979,-1.921 C 16.39,21.8 13.863,20.034 11.78,17.789 9.697,15.545 8.096,12.901 6.975,9.855 5.851,6.813 5.291,3.525 5.291,0"
             style="fill:#00243a;fill-opacity:1;fill-rule:nonzero;stroke:none"
             id="path26"
             inkscape:connector-curvature="0" /></g><g
           id="g28"
           transform="translate(344.4321,306.0002)"><path
             d="m 0,0 h 5.287 v -51.931 h 26.45 v -4.807 H 0 Z"
             style="fill:#00243a;fill-opacity:1;fill-rule:nonzero;stroke:none"
             id="path30"
             inkscape:connector-curvature="0" /></g><g
           id="g32"
           transform="translate(428.874,249.2609)"><path
             d="M 0,0 -23.657,30.84 -1.604,56.738 H -8.896 L -30.963,30.775 -7.004,0 Z"
             style="fill:#00243a;fill-opacity:1;fill-rule:nonzero;stroke:none"
             id="path34"
             inkscape:connector-curvature="0" /></g><path
           d="m 392.995,305.999 h -5.287 v -56.738 h 5.287 z"
           style="fill:#00243a;fill-opacity:1;fill-rule:nonzero;stroke:none"
           id="path36"
           inkscape:connector-curvature="0" /><path
           d="m 439.327,305.999 h 5.287 v -56.738 h -5.287 z"
           style="fill:#00243a;fill-opacity:1;fill-rule:nonzero;stroke:none"
           id="path38"
           inkscape:connector-curvature="0" /><g
           id="g40"
           transform="translate(458.8125,259.759)"><path
             d="m 0,0 c 1.391,-2.404 3.191,-4.196 5.41,-5.369 2.216,-1.175 4.74,-1.765 7.572,-1.765 1.765,0 3.418,0.269 4.97,0.8 1.548,0.535 2.897,1.286 4.046,2.246 1.15,0.962 2.058,2.125 2.726,3.484 0.667,1.366 1.001,2.901 1.001,4.612 0,1.975 -0.415,3.606 -1.242,4.888 -0.829,1.283 -1.936,2.335 -3.327,3.165 -1.386,0.83 -2.952,1.536 -4.687,2.123 -1.738,0.588 -3.526,1.174 -5.369,1.761 -1.843,0.591 -3.635,1.258 -5.369,2.006 -1.736,0.749 -3.3,1.724 -4.691,2.926 -1.387,1.202 -2.498,2.712 -3.323,4.529 -0.829,1.815 -1.244,4.06 -1.244,6.729 0,2.511 0.496,4.743 1.483,6.694 0.988,1.947 2.326,3.579 4.008,4.888 1.682,1.309 3.618,2.297 5.808,2.968 2.195,0.664 4.488,1.001 6.894,1.001 3.099,0 5.972,-0.551 8.615,-1.646 2.645,-1.094 4.932,-2.922 6.853,-5.488 l -4.569,-3.288 c -1.335,1.872 -2.9,3.275 -4.687,4.208 -1.791,0.936 -3.914,1.403 -6.373,1.403 -1.71,0 -3.341,-0.227 -4.889,-0.68 C 8.067,41.741 6.72,41.074 5.569,40.193 4.42,39.308 3.499,38.2 2.807,36.865 2.109,35.531 1.763,33.953 1.763,32.135 c 0,-2.831 0.722,-5.005 2.165,-6.531 1.44,-1.52 3.246,-2.725 5.41,-3.606 2.163,-0.881 4.513,-1.655 7.053,-2.323 2.537,-0.667 4.885,-1.566 7.049,-2.686 2.164,-1.121 3.968,-2.682 5.411,-4.688 1.445,-2.002 2.164,-4.769 2.164,-8.293 0,-2.567 -0.48,-4.838 -1.446,-6.814 -0.959,-1.976 -2.254,-3.644 -3.883,-5.009 -1.63,-1.36 -3.515,-2.39 -5.651,-3.083 -2.138,-0.694 -4.357,-1.044 -6.651,-1.044 -3.741,0 -7.186,0.658 -10.338,1.963 -3.155,1.31 -5.852,3.515 -8.094,6.613 z"
             style="fill:#00243a;fill-opacity:1;fill-rule:nonzero;stroke:none"
             id="path42"
             inkscape:connector-curvature="0" /></g><g
           id="g44"
           transform="translate(498.3574,298.8449)"><path
             d="M 0,0 H 0.885 V 5.966 H 3.064 V 6.753 H -2.181 V 5.966 H 0 Z M 4.277,0 H 5.162 V 5.917 H 5.195 L 7.522,0 h 0.526 l 2.327,5.917 h 0.032 V 0 h 0.886 V 6.753 H 9.933 L 7.817,1.377 5.687,6.753 h -1.41 z"
             style="fill:#00243a;fill-opacity:1;fill-rule:nonzero;stroke:none"
             id="path46"
             inkscape:connector-curvature="0" /></g><g
           id="g48"
           transform="translate(532.5732,375.2033)"><path
             d="M 0,0 -22.953,-18.774 0,-42.152 Z"
             style="fill:#569cac;fill-opacity:1;fill-rule:nonzero;stroke:none"
             id="path50"
             inkscape:connector-curvature="0" /></g><g
           id="g52"
           transform="translate(590.9951,375.2033)"><path
             d="M 0,0 22.954,-18.774 0,-42.152 Z"
             style="fill:#569cac;fill-opacity:1;fill-rule:nonzero;stroke:none"
             id="path54"
             inkscape:connector-curvature="0" /></g><g
           id="g56"
           transform="translate(561.8291,260.717)"><path
             d="M 0,0 -52.209,53.175 V 95.712 L 0,42.538 Z"
             style="fill:#00243a;fill-opacity:1;fill-rule:nonzero;stroke:none"
             id="path58"
             inkscape:connector-curvature="0" /></g><g
           id="g60"
           transform="translate(561.8291,260.717)"><path
             d="M 0,0 52.12,53.175 V 95.712 L 0,42.538 Z"
             style="fill:#477e95;fill-opacity:1;fill-rule:nonzero;stroke:none"
             id="path62"
             inkscape:connector-curvature="0" /></g></g></g></g></svg>